<svg xmlns="http://www.w3.org/2000/svg" xmlns:xlink="http://www.w3.org/1999/xlink" width="84" height="42" viewBox="0 0 84 42">
    <defs>
        <path id="prefix__a" d="M0 0L83.964 0 83.964 41.949 0 41.949z"></path>
    </defs>
    <g fill="none" fill-rule="evenodd">
        <mask id="prefix__b" fill="#fff">
            <use xlink:href="#prefix__a"></use>
        </mask>
        <path fill="#ffffff" d="M42.537 41.95c3.398 0 5.816-1.046 6.861-1.96v-7.058c-.784.588-2.352 1.307-4.378 1.307-1.437 0-2.483-.327-3.267-1.045-.653-.654-.98-1.765-.98-3.268V0h-8.625v8.821h17.25v8.364h-17.25v14.832c0 3.006.915 5.424 2.548 7.123 1.83 1.83 4.509 2.81 7.841 2.81m26.399 0c4.835 0 8.56-1.765 11.108-4.248 2.025-1.96 3.267-4.247 3.92-6.6l-7.645-2.548c-.327 1.176-.98 2.418-2.026 3.398-1.241 1.176-2.94 2.026-5.357 2.026-2.222 0-4.313-.85-5.816-2.353-1.503-1.568-2.418-3.855-2.418-6.73 0-2.94.915-5.162 2.418-6.73 1.503-1.503 3.528-2.287 5.75-2.287 2.352 0 3.986.784 5.162 1.96.98.98 1.568 2.222 1.96 3.463l7.776-2.613c-.588-2.287-1.83-4.574-3.66-6.47-2.613-2.547-6.403-4.377-11.434-4.377-4.64 0-8.821 1.764-11.827 4.77-3.006 3.071-4.835 7.318-4.835 12.284 0 4.966 1.895 9.213 4.966 12.284 3.006 3.006 7.253 4.77 11.958 4.77m-55.149 0c4.378 0 7.972-1.372 10.324-3.659 1.764-1.764 2.81-4.116 2.81-6.86 0-2.484-.915-4.705-2.614-6.404-1.699-1.699-4.116-2.94-7.187-3.529l-5.032-.98c-2.09-.392-3.267-1.437-3.267-2.875 0-1.895 1.83-3.201 4.77-3.201 1.83 0 3.398.588 4.443 1.633.654.719 1.111 1.634 1.242 2.68l7.253-1.634c-.196-2.091-1.176-3.921-2.68-5.424-2.352-2.352-6.01-3.855-10.323-3.855-3.986 0-7.319 1.307-9.606 3.398C1.96 13.069.85 15.55.85 18.296c0 2.417.784 4.443 2.352 6.011 1.568 1.568 3.855 2.744 6.86 3.463l4.967 1.176c2.483.588 3.593 1.503 3.593 3.137 0 2.025-1.83 3.202-4.835 3.202-2.156 0-3.92-.72-5.031-1.895-.784-.784-1.242-1.83-1.307-3.006L0 32.017c.196 2.222 1.241 4.182 2.81 5.75 2.483 2.614 6.469 4.182 10.977 4.182" mask="url(#prefix__b)"></path>
    </g>
</svg>