<svg
                    width="16px"
                    height="16px"
                    viewBox="0 0 16 16"
                    version="1.1"
                    xmlns="http://www.w3.org/2000/svg"
                    xmlns:xlink="http://www.w3.org/1999/xlink"
                  >
                    <title>Shape@4x</title>
                    <g id="Devices-Listings-Old-to-New" stroke="none" stroke-width="1" fill="none" fill-rule="evenodd">
                      <g
                        id="Device-Listings---Old-to-New-UI"
                        transform="translate(-1090.000000, -1146.000000)"
                        fill="#4F008C"
                      >
                        <g id="Group-7" transform="translate(961.000000, 702.000000)">
                          <g id="Group-2" transform="translate(129.000000, 439.000000)">
                            <g id="price-tag.1-copy" transform="translate(0.000000, 5.000000)">
                              <path
                                d="M12.6666667,4 C13.0353333,4 13.3333333,3.702 13.3333333,3.33333333 C13.3333333,2.96466667 13.0353333,2.66666667 12.6666667,2.66666667 C12.298,2.66666667 12,2.96466667 12,3.33333333 C12,3.702 12.298,4 12.6666667,4 Z M15.3333333,0 L10,0 C9.81666667,0 9.65,0.0746666667 9.52866667,0.195333333 L0.195333333,9.52866667 C0.0746666667,9.65 0,9.81666667 0,10 C0,10.1833333 0.0746666667,10.35 0.195333333,10.4713333 L5.52866667,15.8046667 C5.64933333,15.926 5.816,16 6,16 C6.184,16 6.35066667,15.926 6.47133333,15.8046667 L15.8046667,6.47133333 C15.926,6.35066667 16,6.184 16,6 L16,0.666666667 C16,0.298 15.702,0 15.3333333,0 Z M6,14.3906667 L1.60933333,10 L3.33333333,8.276 L7.724,12.6666667 L6,14.3906667 Z M14.6666667,5.724 L8.66666667,11.724 L4.276,7.33333333 L10.276,1.33333333 L14.6666667,1.33333333 L14.6666667,5.724 Z"
                                id="Shape"
                              ></path>
                            </g>
                          </g>
                        </g>
                      </g>
                    </g>
                  </svg>